<svg id="icon-nayp-marker" viewBox="0 0 32 32">
  <path fill="#000" style="fill: var(--color1, #000)" d="M28.447 0.001h-24.894v28.006h8.691l3.993 3.992 3.993-3.992h8.217z"></path>
  <path fill="#fff" style="fill: var(--color2, #fff)" d="M8.262 4.487v7.983h2.115v-5.987h2.105v5.987h2.115v-7.983h-6.336zM17.553 15.408v7.983h2.115v-1.996h4.221v-5.987h-6.336zM21.774 19.399h-2.105v-1.995h2.105v1.995zM17.553 4.488v7.982h2.115v-1.995h2.105v1.996h2.115v-7.983h-6.336zM21.774 8.479h-2.105v-1.996h2.105v1.996zM14.598 21.375v-6.004h-2.115v4.009h-2.105v-4.009h-2.115v6.004h2.115v2.015h2.105v-2.015h2.115z"></path>
</svg>
